<svg width="48" height="48" viewBox="0 0 48 48" fill="none" xmlns="http://www.w3.org/2000/svg">
<rect width="48" height="48" rx="16" fill="#F3F4FD"/>
<path d="M18.2857 21H14.7143C14.3198 21 14 21.3838 14 21.8571V26.1429C14 26.6162 14.3198 27 14.7143 27H18.2857C18.6802 27 19 26.6162 19 26.1429V21.8571C19 21.3838 18.6802 21 18.2857 21Z" stroke="#2026D2" stroke-width="1.5" stroke-linecap="round" stroke-linejoin="round"/>
<path d="M32.25 15H27.75C27.3358 15 27 15.3358 27 15.75V20.25C27 20.6642 27.3358 21 27.75 21H32.25C32.6642 21 33 20.6642 33 20.25V15.75C33 15.3358 32.6642 15 32.25 15Z" fill="#F3F4FD" stroke="#2026D2" stroke-width="1.5" stroke-linecap="round" stroke-linejoin="round"/>
<path d="M32.25 27H27.75C27.3358 27 27 27.3358 27 27.75V32.25C27 32.6642 27.3358 33 27.75 33H32.25C32.6642 33 33 32.6642 33 32.25V27.75C33 27.3358 32.6642 27 32.25 27Z" fill="#F3F4FD" stroke="#2026D2" stroke-width="1.5" stroke-linecap="round" stroke-linejoin="round"/>
<path d="M19 24H23" stroke="#2026D2" stroke-width="1.5" stroke-linecap="round" stroke-linejoin="round"/>
<path d="M27 29H26C25.2044 29 24.4413 28.7836 23.8787 28.4C23.3161 28.0164 23 27.497 23 26.9545V21.0455C23 20.503 23.3161 19.9827 23.8787 19.5991C24.4413 19.2155 25.2044 19 26 19H27" stroke="#2026D2" stroke-width="1.5" stroke-linecap="round" stroke-linejoin="round"/>
</svg>
