<svg width="48" height="48" viewBox="0 0 48 48" fill="none" xmlns="http://www.w3.org/2000/svg">
<rect width="48" height="48" rx="16" fill="#F3F4FD"/>
<path d="M23.8139 14.3563C23.9292 14.2904 24.0708 14.2904 24.1861 14.3563L33.274 19.5494C33.6078 19.7402 33.4725 20.25 33.0879 20.25H14.9121C14.5275 20.25 14.3922 19.7402 14.726 19.5494L23.8139 14.3563Z" stroke="#2026D2" stroke-width="1.5"/>
<path d="M14.25 33.75L33.75 33.75" stroke="#2026D2" stroke-width="1.5" stroke-linecap="round"/>
<path fill-rule="evenodd" clip-rule="evenodd" d="M17.25 22.5C17.6642 22.5 18 22.8358 18 23.25L18 30.75C18 31.1642 17.6642 31.5 17.25 31.5C16.8358 31.5 16.5 31.1642 16.5 30.75L16.5 23.25C16.5 22.8358 16.8358 22.5 17.25 22.5Z" fill="#2026D2"/>
<path fill-rule="evenodd" clip-rule="evenodd" d="M21.75 22.5C22.1642 22.5 22.5 22.8358 22.5 23.25L22.5 30.75C22.5 31.1642 22.1642 31.5 21.75 31.5C21.3358 31.5 21 31.1642 21 30.75L21 23.25C21 22.8358 21.3358 22.5 21.75 22.5Z" fill="#2026D2"/>
<path fill-rule="evenodd" clip-rule="evenodd" d="M26.25 22.5C26.6642 22.5 27 22.8358 27 23.25L27 30.75C27 31.1642 26.6642 31.5 26.25 31.5C25.8358 31.5 25.5 31.1642 25.5 30.75L25.5 23.25C25.5 22.8358 25.8358 22.5 26.25 22.5Z" fill="#2026D2"/>
<path fill-rule="evenodd" clip-rule="evenodd" d="M30.75 22.5C31.1642 22.5 31.5 22.8358 31.5 23.25V30.75C31.5 31.1642 31.1642 31.5 30.75 31.5C30.3358 31.5 30 31.1642 30 30.75V23.25C30 22.8358 30.3358 22.5 30.75 22.5Z" fill="#2026D2"/>
<path fill-rule="evenodd" clip-rule="evenodd" d="M15 30.75C15 30.3358 15.3358 30 15.75 30H32.25C32.6642 30 33 30.3358 33 30.75C33 31.1642 32.6642 31.5 32.25 31.5H15.75C15.3358 31.5 15 31.1642 15 30.75Z" fill="#2026D2"/>
</svg>
