<svg width="48" height="48" viewBox="0 0 48 48" fill="none" xmlns="http://www.w3.org/2000/svg">
<rect width="48" height="48" rx="16" fill="#F3F4FD"/>
<path d="M26.75 18.375C26.75 15.6826 24.5674 13.5 21.875 13.5C19.1826 13.5 17 15.6826 17 18.375C17 21.0674 19.1826 23.25 21.875 23.25" stroke="#2026D2" stroke-width="1.5" stroke-linecap="round"/>
<path d="M21.875 23.25C17.3877 23.25 13.75 25.6875 13.75 31.375V33" stroke="#2026D2" stroke-width="1.5" stroke-linecap="round"/>
<g clip-path="url(#clip0_157_11897)">
<path d="M26.8333 28.5832C27.0838 28.9181 27.4035 29.1953 27.7705 29.3958C28.1375 29.5963 28.5434 29.7155 28.9605 29.7454C29.3777 29.7753 29.7964 29.7151 30.1883 29.5689C30.5801 29.4228 30.936 29.194 31.2317 28.8982L32.9817 27.1482C33.513 26.5981 33.8069 25.8614 33.8003 25.0966C33.7936 24.3319 33.4869 23.6004 32.9461 23.0596C32.4054 22.5188 31.6738 22.2121 30.9091 22.2054C30.1443 22.1988 29.4076 22.4928 28.8575 23.0241L27.8542 24.0216M29.1667 27.4166C28.9161 27.0817 28.5965 26.8045 28.2295 26.604C27.8625 26.4035 27.4566 26.2842 27.0394 26.2544C26.6223 26.2245 26.2036 26.2847 25.8117 26.4309C25.4199 26.577 25.064 26.8058 24.7683 27.1016L23.0183 28.8516C22.487 29.4017 22.193 30.1384 22.1997 30.9032C22.2063 31.6679 22.5131 32.3994 23.0539 32.9402C23.5946 33.481 24.3262 33.7877 25.0909 33.7944C25.8556 33.801 26.5924 33.507 27.1425 32.9757L28.14 31.9782" stroke="#2026D2" stroke-width="1.5" stroke-linecap="round" stroke-linejoin="round"/>
</g>
<defs>
<clipPath id="clip0_157_11897">
<rect width="14" height="14" fill="white" transform="translate(21 21)"/>
</clipPath>
</defs>
</svg>
