<svg width="1283" height="83" viewBox="0 0 1283 83" fill="none" xmlns="http://www.w3.org/2000/svg">
<g clip-path="url(#clip0_1305_40517)">
<rect width="1283" height="82.0131" fill="#2026D2"/>
<rect width="1283" height="82.0131" fill="url(#paint0_linear_1305_40517)" fill-opacity="0.4"/>
<g opacity="0.4">
<path opacity="0.8" d="M1342.18 -133.412C1342.18 145.816 1115.82 372.175 836.588 372.175C557.359 372.175 331 145.816 331 -133.412C331 -412.641 557.359 -639 836.588 -639C1115.82 -639 1342.18 -412.641 1342.18 -133.412Z" fill="url(#paint1_radial_1305_40517)"/>
<path opacity="0.8" d="M1146.98 -133.411C1146.98 38.0116 1008.01 176.977 836.588 176.977C665.165 176.977 526.199 38.0116 526.199 -133.411C526.199 -304.834 665.165 -443.8 836.588 -443.8C1008.01 -443.8 1146.98 -304.834 1146.98 -133.411Z" fill="url(#paint2_radial_1305_40517)"/>
</g>
</g>
<defs>
<linearGradient id="paint0_linear_1305_40517" x1="6858.45" y1="-2027.45" x2="6945.83" y2="-1740.51" gradientUnits="userSpaceOnUse">
<stop stop-color="#62E1FC" stop-opacity="0.6"/>
<stop offset="0.484382" stop-color="#2026D2"/>
<stop offset="1" stop-color="#F34D77" stop-opacity="0.6"/>
</linearGradient>
<radialGradient id="paint1_radial_1305_40517" cx="0" cy="0" r="1" gradientUnits="userSpaceOnUse" gradientTransform="translate(763.097 -235.844) rotate(32.5718) scale(748.865 1440.59)">
<stop offset="0.166665" stop-color="#2626D2"/>
<stop offset="0.880238" stop-color="#0094FF"/>
</radialGradient>
<radialGradient id="paint2_radial_1305_40517" cx="0" cy="0" r="1" gradientUnits="userSpaceOnUse" gradientTransform="translate(791.47 -196.296) rotate(32.5718) scale(459.741 884.401)">
<stop offset="0.166665" stop-color="#2626D2"/>
<stop offset="0.880238" stop-color="#0094FF"/>
</radialGradient>
<clipPath id="clip0_1305_40517">
<rect width="1283" height="82.0131" fill="white"/>
</clipPath>
</defs>
</svg>
