<svg width="48" height="48" viewBox="0 0 48 48" fill="none" xmlns="http://www.w3.org/2000/svg">
<rect width="48" height="48" rx="16" fill="#F3F4FD"/>
<rect x="16.5" y="15" width="15" height="16.5" fill="#F3F4FD"/>
<path d="M15.75 32.25V17.25C15.75 15.5931 17.0931 14.25 18.75 14.25H29.25C30.9069 14.25 32.25 15.5931 32.25 17.25V27.75C32.25 29.4069 30.9069 30.75 29.25 30.75H26.475" stroke="#2026D2" stroke-width="1.5"/>
<path d="M19.5 19.3189V15H22.5V19.3189C22.5 19.3858 22.4192 19.4192 22.372 19.372L21 18L19.628 19.372C19.5808 19.4192 19.5 19.3858 19.5 19.3189Z" fill="#2026D2"/>
<path d="M29.25 33.75H17.2846C16.437 33.75 15.75 33.063 15.75 32.2154C15.75 31.4061 16.4061 30.75 17.2154 30.75H22.35H28.95C30.4912 30.75 32.25 29.6636 32.25 27.75V30.75C32.25 32.4069 30.9069 33.75 29.25 33.75Z" fill="#F3F4FD" stroke="#2026D2" stroke-width="1.5"/>
</svg>
