<?xml version="1.0" encoding="UTF-8"?>
<svg width="552px" height="370px" viewBox="0 0 552 370" version="1.1" xmlns="http://www.w3.org/2000/svg" xmlns:xlink="http://www.w3.org/1999/xlink">
    <title>Group 17</title>
    <g id="new-data-catalog-utility" stroke="none" stroke-width="1" fill="none" fill-rule="evenodd">
        <g id="Group-17">
            <g id="Grid_Spot" fill-rule="nonzero">
                <rect id="Rectangle" fill="#62E0FB" x="278.04" y="111.41" width="21.42" height="1"></rect>
                <rect id="Rectangle" fill="#62E0FB" x="278.04" y="117.11" width="21.42" height="1"></rect>
                <rect id="Rectangle" fill="#62E0FB" x="278.04" y="122.8" width="21.42" height="1"></rect>
                <rect id="Rectangle" fill="#62E0FB" x="278.04" y="128.5" width="21.42" height="1"></rect>
                <rect id="Rectangle" fill="#62E0FB" x="278.04" y="134.19" width="21.42" height="1"></rect>
                <rect id="Rectangle" fill="#62E0FB" x="278.04" y="139.89" width="21.42" height="1"></rect>
                <ellipse id="Oval" fill="#E6E9FF" cx="436.43" cy="349.7" rx="29.43" ry="4.03"></ellipse>
                <circle id="Oval" fill="#F5F6FF" cx="231.1" cy="291.57" r="20.7"></circle>
                <circle id="Oval" fill="#F5F6FF" cx="159.39" cy="97.29" r="37.25"></circle>
                <circle id="Oval" fill="#FAFBFC" cx="159.39" cy="97.29" r="14.39"></circle>
                <path d="M263.67,164.71 C248.538088,146.017999 223.270283,138.888718 200.599884,146.914843 C177.929484,154.940968 162.776146,176.380765 162.776146,200.43 C162.776146,224.479235 177.929484,245.919032 200.599884,253.945157 C223.270283,261.971282 248.538088,254.842001 263.67,236.15 L263.67,164.71 Z" id="Path" fill="#62E1FC"></path>
                <rect id="Rectangle" fill="#031C93" x="263.67" y="151.41" width="172.76" height="99.08"></rect>
                <circle id="Oval" fill="#F5F6FF" cx="209.11" cy="126.15" r="3.84"></circle>
                <circle id="Oval" fill="#E6E9FF" cx="169.71" cy="288.13" r="10.32"></circle>
                <circle id="Oval" fill="#FAFBFC" cx="169.71" cy="288.13" r="3.02"></circle>
                <circle id="Oval" fill="#62E0FB" cx="197.44" cy="270.86" r="4.4"></circle>
                <circle id="Oval" fill="#E6E9FF" cx="231.1" cy="97.58" r="15.2"></circle>
                <circle id="Oval" fill="#F5F6FF" cx="34.22" cy="282.87" r="15.2"></circle>
                <circle id="Oval" fill="#F5F6FF" cx="105.06" cy="136.98" r="17.05"></circle>
                <circle id="Oval" fill="#94E0FB" cx="54.88" cy="171.81" r="1"></circle>
                <circle id="Oval" fill="#99DAF5" cx="58.48" cy="171.81" r="1"></circle>
                <circle id="Oval" fill="#9ED4F0" cx="62.08" cy="171.81" r="1"></circle>
                <circle id="Oval" fill="#A2CDEA" cx="65.69" cy="171.81" r="1"></circle>
                <circle id="Oval" fill="#A7C7E5" opacity="0.99" cx="69.29" cy="171.81" r="1"></circle>
                <circle id="Oval" fill="#ACC1DF" opacity="0.99" cx="72.9" cy="171.81" r="1"></circle>
                <circle id="Oval" fill="#B1BBDA" opacity="0.99" cx="76.5" cy="171.81" r="1"></circle>
                <circle id="Oval" fill="#B5B5D4" opacity="0.99" cx="80.11" cy="171.81" r="1"></circle>
                <circle id="Oval" fill="#BAAECF" opacity="0.99" cx="83.71" cy="171.81" r="1"></circle>
                <circle id="Oval" fill="#BFA8C9" opacity="0.99" cx="87.32" cy="171.81" r="1"></circle>
                <circle id="Oval" fill="#C4A2C4" opacity="0.98" cx="90.92" cy="171.81" r="1"></circle>
                <circle id="Oval" fill="#C89CBE" opacity="0.98" cx="94.53" cy="171.81" r="1"></circle>
                <circle id="Oval" fill="#CD96B9" opacity="0.98" cx="98.13" cy="171.81" r="1"></circle>
                <circle id="Oval" fill="#D290B3" opacity="0.98" cx="101.73" cy="171.81" r="1"></circle>
                <circle id="Oval" fill="#D789AE" opacity="0.98" cx="105.34" cy="171.81" r="1"></circle>
                <circle id="Oval" fill="#DB83A8" opacity="0.98" cx="108.94" cy="171.81" r="1"></circle>
                <circle id="Oval" fill="#E07DA3" opacity="0.97" cx="112.55" cy="171.81" r="1"></circle>
                <circle id="Oval" fill="#E5779D" opacity="0.97" cx="116.15" cy="171.81" r="1"></circle>
                <circle id="Oval" fill="#EA7198" opacity="0.97" cx="119.76" cy="171.81" r="1"></circle>
                <circle id="Oval" fill="#EE6A92" opacity="0.97" cx="123.36" cy="171.81" r="1"></circle>
                <circle id="Oval" fill="#F3648D" opacity="0.97" cx="126.97" cy="171.81" r="1"></circle>
                <circle id="Oval" fill="#F85E87" opacity="0.97" cx="130.57" cy="171.81" r="1"></circle>
                <g id="Group" opacity="0.97" transform="translate(123.000000, 164.000000)" fill="#FFD4E1">
                    <circle id="Oval" cx="7.57" cy="7.81" r="7.2"></circle>
                </g>
                <g id="Group" opacity="0.97" transform="translate(128.000000, 169.000000)" fill="#F85E87">
                    <circle id="Oval" cx="2.57" cy="2.81" r="2.39"></circle>
                </g>
                <circle id="Oval" fill="#94E0FB" cx="159.25" cy="97.29" r="1"></circle>
                <circle id="Oval" fill="#99DAF5" cx="155.89" cy="97.29" r="1"></circle>
                <circle id="Oval" fill="#9ED4F0" cx="152.54" cy="97.29" r="1"></circle>
                <circle id="Oval" fill="#A2CDEA" cx="149.18" cy="97.29" r="1"></circle>
                <circle id="Oval" fill="#A7C7E5" opacity="0.99" cx="145.82" cy="97.29" r="1"></circle>
                <circle id="Oval" fill="#ACC1DF" opacity="0.99" cx="142.46" cy="97.29" r="1"></circle>
                <circle id="Oval" fill="#B1BBDA" opacity="0.99" cx="139.1" cy="97.29" r="1"></circle>
                <circle id="Oval" fill="#B5B5D4" opacity="0.99" cx="135.75" cy="97.29" r="1"></circle>
                <circle id="Oval" fill="#BAAECF" opacity="0.99" cx="132.39" cy="97.29" r="1"></circle>
                <circle id="Oval" fill="#BFA8C9" opacity="0.99" cx="129.03" cy="97.29" r="1"></circle>
                <circle id="Oval" fill="#C4A2C4" opacity="0.98" cx="125.67" cy="97.29" r="1"></circle>
                <circle id="Oval" fill="#C89CBE" opacity="0.98" cx="122.31" cy="97.29" r="1"></circle>
                <circle id="Oval" fill="#CD96B9" opacity="0.98" cx="118.96" cy="97.29" r="1"></circle>
                <circle id="Oval" fill="#D290B3" opacity="0.98" cx="115.6" cy="97.29" r="1"></circle>
                <circle id="Oval" fill="#D789AE" opacity="0.98" cx="112.24" cy="97.29" r="1"></circle>
                <circle id="Oval" fill="#DB83A8" opacity="0.98" cx="108.88" cy="97.29" r="1"></circle>
                <circle id="Oval" fill="#E07DA3" opacity="0.97" cx="105.53" cy="97.29" r="1"></circle>
                <circle id="Oval" fill="#E5779D" opacity="0.97" cx="102.17" cy="97.29" r="1"></circle>
                <circle id="Oval" fill="#EA7198" opacity="0.97" cx="98.81" cy="97.29" r="1"></circle>
                <circle id="Oval" fill="#EE6A92" opacity="0.97" cx="95.45" cy="97.29" r="1"></circle>
                <circle id="Oval" fill="#F3648D" opacity="0.97" cx="92.09" cy="97.29" r="1"></circle>
                <circle id="Oval" fill="#F85E87" opacity="0.97" cx="88.74" cy="97.29" r="1"></circle>
                <circle id="Oval" fill="#DCF8FF" cx="159.25" cy="97.29" r="6.88"></circle>
                <circle id="Oval" fill="#94E0FB" cx="159.25" cy="97.29" r="2.31"></circle>
                <path d="M263.67,244.46 L407.32,244.46 C407.259058,231.480214 417.720334,220.902602 430.7,220.82 L431,220.82 L431,181.08 L431,181.08 C424.525942,181.844566 418.058431,179.600896 413.448767,174.991233 C408.839104,170.381569 406.595434,163.914058 407.36,157.44 L263.67,157.44 L263.67,244.46 Z" id="Path" fill="#2027D2"></path>
                <circle id="Oval" fill="#031C93" cx="337.11" cy="204.13" r="27.54"></circle>
                <g id="Group" opacity="0.97" transform="translate(506.000000, 186.000000)" fill="#FFD4E1">
                    <circle id="Oval" cx="7.64" cy="7.34" r="7.2"></circle>
                </g>
                <circle id="Oval" fill="#F24D77" cx="513.64" cy="193.34" r="2.39"></circle>
                <g id="Group" opacity="0.97" transform="translate(374.000000, 87.000000)" fill="#FFD4E1">
                    <circle id="Oval" cx="8.13" cy="7.98" r="7.2"></circle>
                </g>
                <circle id="Oval" fill="#F24D77" cx="382.13" cy="94.98" r="2.39"></circle>
                <circle id="Oval" fill="#CDF1F9" cx="388.19" cy="280.2" r="6.88"></circle>
                <circle id="Oval" fill="#62E0FB" cx="388.19" cy="280.2" r="2.31"></circle>
                <circle id="Oval" fill="#CDF1F9" cx="545.09" cy="123.3" r="6.88"></circle>
                <circle id="Oval" fill="#62E0FB" cx="545.09" cy="123.3" r="2.31"></circle>
                <path d="M263.67,369.62 C262.565431,369.62 261.67,368.724569 261.67,367.62 L261.67,2.75 C261.67,1.6454305 262.565431,0.75 263.67,0.75 C264.774569,0.75 265.67,1.6454305 265.67,2.75 L265.67,367.62 C265.67,368.724569 264.774569,369.62 263.67,369.62 Z" id="Path" fill="#F5F6FF"></path>
                <path d="M67.7,355.62 L0.91,355.62 C0.633857625,355.62 0.41,355.396142 0.41,355.12 C0.41,354.843858 0.633857625,354.62 0.91,354.62 L67.7,354.62 C67.9761424,354.62 68.2,354.843858 68.2,355.12 C68.2,355.396142 67.9761424,355.62 67.7,355.62 Z" id="Path" fill="#E6E9FF"></path>
            </g>
            <g id="Human-Copy-8" transform="translate(76.000000, 145.000000)">
                <g id="Head/Front/Wavy" transform="translate(23.241600, 0.000000)">
                    <g id="Head" stroke-width="1" transform="translate(20.995200, 11.998310)" fill="#D4A181">
                        <path d="M14.8301311,3.53521798 C17.0831535,7.71570849 16.8154359,18.3198694 13.9036052,19.0670396 C12.7424201,19.3649975 10.2688062,18.6351634 7.7511916,17.1246073 L9.3312,28.2540845 L0,28.2540845 L3.21277692,13.3496094 C1.42099953,11.2561077 0.208239546,8.69042868 0.410874639,5.81548553 C0.99467879,-2.46740233 12.5771087,-0.645272533 14.8301311,3.53521798 Z"></path>
                    </g>
                    <path d="M36.7062566,17.4105666 C36.6138265,16.8686882 36.3879332,16.2669381 36.205664,15.7542702 C35.9706723,15.0933737 35.6150516,14.4974921 35.2237001,13.9358982 C34.4869108,12.8785826 33.6030408,11.9238005 32.6271625,11.1313577 C30.8445999,9.6838869 28.5754841,8.84898007 26.3440874,9.12011708 C25.217453,9.25700435 24.1237776,9.68481004 23.1929092,10.3968744 C22.35188,11.0402314 21.5429061,11.9872987 20.4538703,12.0553467 C19.2689097,12.1293292 18.1827058,11.0881683 17.2323753,10.445141 C16.1608735,9.72021874 15.0209831,9.19198949 13.7686582,8.98665859 C11.6707248,8.64279197 9.69986761,9.34839441 8.25400596,11.061859 C6.71541299,12.8852423 5.59697309,15.5592256 6.60737707,17.9751936 C6.79518965,18.4242973 7.0368093,18.8029132 7.38357267,19.1167121 C7.70159475,19.4044655 8.18730448,19.7106156 8.31624863,20.1704012 C8.4532066,20.6591336 8.04408006,21.2896327 7.88543055,21.7306259 C7.65815141,22.3624438 7.47154391,23.0256481 7.53788387,23.7123923 C7.64688386,24.8401956 8.35884841,25.9168312 9.11064103,26.6581061 C9.87568959,27.4124367 10.8172832,27.8449899 11.8229873,28.0443864 C12.4945213,28.1775152 13.1808175,28.2509701 13.8633177,28.2009891 C14.2021275,28.1761964 14.5011092,28.0824985 14.8293745,28.0079886 C15.1486017,27.9355227 15.3270146,28.0199234 15.5978576,28.1941975 C16.8560271,29.003916 18.2088562,29.3171874 19.6616471,29.1967846 C20.8877613,29.0951083 22.3009652,28.7993104 23.3011862,27.9630189 C24.4119738,27.0342164 24.3898605,25.7534368 24.1284774,24.3850257 C24.4054061,24.5216492 25.1715392,24.6062477 24.7137272,24.0616658 C24.5323618,23.8459826 24.1896958,23.7582192 23.9569937,23.6313545 C23.6860302,23.4836534 23.4109092,23.2927629 23.2005013,23.0518255 C22.350916,22.0789763 23.2089971,20.0991222 24.2768234,19.7728611 C25.8633186,19.2881509 26.2185175,21.5216684 27.3510569,22.0994171 C28.0022249,22.4316127 28.6833995,21.9775637 29.1712784,21.5139537 C29.8247963,20.8928838 30.2701959,20.0701095 30.6547387,19.2328289 C30.9714954,18.5433153 31.2662594,17.8441089 31.5891018,17.1580241 C31.739858,16.8376314 32.2617805,15.9319072 31.9996744,15.5696438 C33.1360099,15.34407 34.401651,15.8141419 35.3803009,16.4305962 C35.7847879,16.6854465 36.0931693,16.9664083 36.3089399,17.4163032 C36.3551549,17.5127045 36.4557795,17.7992711 36.5821328,17.811008 C36.8173655,17.8328994 36.7294545,17.5467286 36.7062566,17.4105666" id="hair" fill="#171059"></path>
                </g>
                <g id="Bottom/Skinny-Jeans-1" transform="translate(0.000000, 60.856901)">
                    <path d="M71.8894131,7.69625748 C64.4891205,13.7338209 67.4222017,66.8136694 66.9288146,67.4808146 C66.7095315,67.7773235 54.9668235,70.2793103 31.7006906,74.9867747 L32.7141225,79.0966885 C59.9385314,77.8013029 74.3420273,76.1432459 75.9246102,74.1225176 C78.1904158,71.2294135 80.963972,55.0281929 84.2452791,25.5188559 L71.8894131,7.69625748 Z" id="Leg" fill="#D4A181" transform="translate(57.972985, 43.396473) rotate(-55.000000) translate(-57.972985, -43.396473) "></path>
                    <path d="M35.6371927,70.6695635 L37.4209246,77.2891996 C57.7217441,79.6665309 71.0953341,76.8059039 75.7952556,72.3291315 C78.9285367,69.3446165 81.7094178,53.1874593 84.1378991,23.8576598 L70.9205063,4.98126657 C53.3023051,18.2775181 63.9137356,61.9493006 63.464897,62.9470903 C63.0160584,63.94488 52.3142272,64.7118135 35.6371927,70.6695635 Z" id="Pant" fill="#69A1AC" transform="translate(59.887546, 41.563989) rotate(-55.000000) translate(-59.887546, -41.563989) "></path>
                    <g id="Right-Show" transform="translate(76.520770, 87.602742) rotate(20.000000) translate(-76.520770, -87.602742) translate(65.020770, 83.102742)" fill="#BDC0DC">
                        <path d="M1.11615657,2.43526505 C0.63125219,3.69002008 0.3888,4.62034879 0.3888,5.22625119 C0.3888,5.92419914 0.505601043,6.9426788 0.739203128,8.28169014 C1.55254884,8.28169014 8.8622237,8.28169014 22.6682277,8.28169014 C23.2380853,6.40627971 22.9091305,5.39380596 21.6813631,5.24426891 C20.4535958,5.09473185 19.4336686,4.95971186 18.6215816,4.83920893 L8.33879876,0.27581766 C8.19071301,0.210098757 8.01739009,0.276870278 7.95167119,0.424956027 C7.9506771,0.427196035 7.94971111,0.429448412 7.94877347,0.431712628 L7.25625725,2.1039907 L7.25625725,2.1039907 C6.11966582,2.63189974 5.19606728,2.89585425 4.48546163,2.89585425 C3.87447455,2.89585425 3.01713364,2.63590049 1.91343889,2.11599297 L1.91343982,2.115991 C1.62030651,1.97790734 1.27073609,2.10359991 1.13265243,2.39673322 C1.12669663,2.40937659 1.1211945,2.42222873 1.11615657,2.43526505 Z" id="shoe"></path>
                    </g>
                    <polygon id="Leg" fill="#D4A181" points="41.904 11.52 21.7851698 59.6010629 2.01149118 100.249549 6.67674196 100.249549 57.7179298 11.52"></polygon>
                    <g id="Left-Shot" transform="translate(0.691200, 95.741408)" fill="#BDC0DC">
                        <path d="M1.11615657,2.43526505 C0.63125219,3.69002008 0.3888,4.62034879 0.3888,5.22625119 C0.3888,5.92419914 0.505601043,6.9426788 0.739203128,8.28169014 C1.55254884,8.28169014 8.8622237,8.28169014 22.6682277,8.28169014 C23.2380853,6.40627971 22.9091305,5.39380596 21.6813631,5.24426891 C20.4535958,5.09473185 19.4336686,4.95971186 18.6215816,4.83920893 L8.33879876,0.27581766 C8.19071301,0.210098757 8.01739009,0.276870278 7.95167119,0.424956027 C7.9506771,0.427196035 7.94971111,0.429448412 7.94877347,0.431712628 L7.25625725,2.1039907 L7.25625725,2.1039907 C6.11966582,2.63189974 5.19606728,2.89585425 4.48546163,2.89585425 C3.87447455,2.89585425 3.01713364,2.63590049 1.91343889,2.11599297 L1.91343982,2.115991 C1.62030651,1.97790734 1.27073609,2.10359991 1.13265243,2.39673322 C1.12669663,2.40937659 1.1211945,2.42222873 1.11615657,2.43526505 Z" id="shoe"></path>
                    </g>
                    <path d="M3.79714778,91.8052928 L14.1633867,93.7405041 C22.1785335,82.0100219 55.7222503,33.9111062 59.4,11.52 L36.3224156,11.52 C24.0405376,27.7065026 11.437238,79.8807659 3.79714778,91.8052928 Z" id="Pant" fill="#89C5CC"></path>
                </g>
                <g id="Body/Long-Sleeve-1" transform="translate(30.873600, 23.097465)">
                    <path d="M42.1759453,35.410987 L54.577993,44.4769094 C57.9416838,45.3804512 60.7519386,46.5046097 63.0087577,47.8493849 C63.5418575,48.3329575 64.1861587,49.3122722 61.9752647,49.1430221 C59.7643707,48.973772 57.4311957,48.8947288 57.1261353,49.6454213 C56.8210749,50.3961138 58.1589881,51.2938597 57.5423282,52.3067404 C57.1312216,52.9819942 55.1889887,51.2888203 51.7156296,47.2272187 L39.4343489,42.1575057 L42.1759453,35.410987 Z M66.4104118,2.06918997 C64.9440796,3.72504854 63.4765264,5.53241151 63.8951889,6.22672015 C64.3138514,6.92102878 65.8392556,6.39763136 66.2807366,7.49745822 C66.5750573,8.23067612 64.0478224,8.75582213 58.6990321,9.07289626 L47.2407323,15.785791 L43.4781872,9.54599729 L58.2151754,5.1420686 C60.9643726,3.01161565 63.5574964,1.45392847 65.9945468,0.469007048 C66.7033264,0.336200663 67.8767441,0.4133314 66.4104118,2.06918997 Z" id="Skin" fill="#D4A181"></path>
                    <path d="M18.4340355,14.7120307 C28.2022315,25.0730012 40.1228243,31.8277206 56.3842897,37.8126831 L52.7634336,45.0124686 C35.9800986,43.4550466 27.0078982,42.206183 19.9848591,31.8261108 C18.2222186,29.2209231 15.0754038,20.2536622 13.189418,15.5972347 L18.4340355,14.7120307 Z" id="Coat-Back" fill="#565AE2" transform="translate(34.786854, 29.862250) rotate(15.000000) translate(-34.786854, -29.862250) "></path>
                    <path d="M4.032,52.7628169 L33.9696,52.7628169 C27.1882323,32.1742517 23.7240523,18.0435405 23.5770598,10.3706832 C23.569566,9.97951355 22.8438464,9.29021733 22.5227721,9.38048681 C20.1747907,10.0406178 17.6622653,9.79378882 14.9851959,8.64 C7.88791816,20.0029439 5.43355647,33.9930286 4.032,52.7628169 Z" id="Shirt" fill="#FAEDDD"></path>
                    <path d="M56.1011362,5.15661972 L57.6864,13.0420175 C45.5505028,20.811937 33.2618872,26.8308469 22.4940567,25.9758669 C27.1704452,45.9414956 26.9550245,62.2863655 16.6320252,62.2863655 L16.6320252,62.2863655 L0.669318113,62.2863655 C-1.86592825,45.3253925 4.79719531,21.8085767 10.9743953,9.94688466 C11.210284,9.49392237 11.7125146,8.64 12.8954738,8.64 L12.8954738,8.64 L17.5337656,8.64 C17.5357678,8.64600145 17.5377698,8.6520029 17.5397715,8.65800435 C26.1211127,8.72826658 40.0440597,10.2883284 56.1011362,5.15661972 Z" id="Coat-Front" fill="#6064EC"></path>
                </g>
            </g>
            <g id="Human-Copy-6" transform="translate(472.500000, 233.500000) scale(-1, 1) translate(-472.500000, -233.500000) translate(416.000000, 141.000000)">
                <g id="Head/Front/Short-Beard" transform="translate(27.624000, 0.000000)">
                    <g id="Head" stroke-width="1" transform="translate(23.328000, 13.389671)" fill="#D4A181">
                        <path d="M16.4779235,3.9451729 C18.9812817,8.61044616 18.6838177,20.4442987 15.4484502,21.2781131 C14.1582372,21.6106251 11.409753,20.7961458 8.61238672,19.1104011 L10.368,31.5305164 L0,31.5305164 L3.57013392,14.8981198 C1.57906064,12.5617672 0.231362882,9.69840303 0.456527376,6.48986741 C1.10519866,-2.75353001 13.9745652,-0.720100352 16.4779235,3.9451729 Z"></path>
                    </g>
                    <path d="M34.1850492,12.7938618 C37.0940952,13.0433383 39.6917337,13.9302311 40.4279254,14.4569348 C40.4279254,17.2105528 39.8942799,18.0275432 35.33622,17.9555285 C34.216137,18.5469628 33.3550953,19.5654477 32.4582265,20.9007181 C32.8552004,26.4274777 33.9050537,29.1915109 35.6079419,29.1915109 C38.1622743,29.1915109 40.3294438,27.5702163 41.4502235,27.5702163 C42.2672339,27.5702163 42.0848205,28.5924513 41.5432634,29.3503659 C41.0964612,29.9756698 38.9205723,30.5783881 38.9205723,31.5478191 C38.9205723,32.5172502 40.639705,31.7672548 40.639705,32.3422054 C40.639705,33.2932439 40.94184,35.0813663 39.2909288,35.0813663 C37.6201516,35.0813663 32.8297374,34.4726089 32.0087901,31.9933119 C31.4790209,30.3933852 31.1364707,27.0781868 30.9811396,22.0477168 C30.8798338,22.0343687 30.776641,22.028169 30.672,22.028169 C29.2404779,22.028169 28.08,23.1884452 28.08,24.6197183 C28.08,25.3463102 28.3790701,26.0030627 28.8608465,26.4736323 C28.2610928,27.3200333 27.588941,28.2042124 26.8187269,29.1165704 C23.9251991,27.3808733 21.778037,22.2998374 24.60693,17.4187869 C25.3888449,15.0276361 27.1589909,13.7504327 29.249576,13.1573861 C30.9430576,12.4491205 32.7010518,12.369263 34.1850492,12.7938618 Z" id="Hair" fill="#191847"></path>
                </g>
                <g id="Bottom/Skinny-Jeans-1" transform="translate(0.000000, 80.769953)">
                    <polygon id="Leg" fill="#573F67" points="47.496 0 68.2672683 54.9524678 82.8263981 95.4553991 91.128 95.4553991 71.1150331 4.23907127e-14"></polygon>
                    <path d="M42.3623833,0 C42.1365988,18.8553304 42.2998317,44.2409723 41.7737585,45.4163176 C41.4230431,46.1998812 30.5144569,55.1275682 9.048,72.1993786 L13.3269515,79.4741784 C38.8125757,63.0419404 52.2068735,53.73117 53.5098449,51.5418673 C55.4643019,48.2579133 65.2833409,18.038538 70.392,0 L42.3623833,0 Z" id="Leg" fill="#573F67"></path>
                    <g id="Left-Shoe" transform="translate(13.475159, 84.685521) rotate(50.000000) translate(-13.475159, -84.685521) translate(-0.024841, 79.685521)" fill="#A2A7CB">
                        <path d="M0,9.27699531 L0.432,0.20657277 L9.504,0.20657277 C13.8056846,3.23004695 19.4216846,5.67762128 26.352,7.54929577 L26.352,9.27699531 L9.936,9.27699531 L4.32,8.41314554 L4.32,9.27699531 L0,9.27699531 Z" id="Shoe"></path>
                    </g>
                    <g id="Right-Shoe" transform="translate(82.056000, 93.953052)" fill="#A2A7CB">
                        <path d="M0,9.27699531 L0.432,0.20657277 L9.504,0.20657277 C13.8056846,3.23004695 19.4216846,5.67762128 26.352,7.54929577 L26.352,9.27699531 L9.936,9.27699531 L4.32,8.41314554 L4.32,9.27699531 L0,9.27699531 Z" id="Shoe"></path>
                    </g>
                </g>
                <g id="Body/Pointing-Forward" transform="translate(1.704000, 35.417840)">
                    <path d="M103.056357,20.0446761 C104.928123,19.6593981 109.496572,16.2622693 110.283738,16.9520148 C111.4483,17.9724489 110.409905,21.1057727 109.186429,22.6644335 C106.899754,25.5775686 105.006486,26.5737729 100.326979,27.8783085 C97.8802914,28.560387 95.2349893,29.9275547 92.3910728,31.9798115 L92.016,25.3711984 L98.6024979,21.753554 C99.5266768,18.2375577 100.63142,16.468541 101.916728,16.4465041 C102.904111,15.9871643 101.18459,20.429954 103.056357,20.0446761 Z M91.7199942,4.98506406 C90.5106015,7.1312435 89.3350402,9.44308362 89.9511782,10.1042751 C90.5673161,10.7654665 92.1037115,9.84181119 92.8387547,10.9403864 C93.3287836,11.6727699 90.7039738,12.8297295 84.9643253,14.4112655 L74.0689023,24.3854605 L68.531633,18.443293 L83.5262587,10.2322235 C86.0197732,7.27168096 88.4765794,4.97240488 90.8966775,3.33439525 C91.6361816,3.02571808 92.929387,2.83888461 91.7199942,4.98506406 Z" id="Skin" fill="#D4A181"></path>
                    <path d="M61.7145999,15.0092334 C66.9106991,15.7760489 74.0016428,15.7762394 82.1245291,12.2609342 L83.999536,19.1831102 C78.1082155,23.428467 70.2921129,26.4452479 64.0604995,25.2780924 C59.1496448,24.3583095 57.5734326,17.9934086 61.7145999,15.0092334 Z" id="Sleeve" fill="#C5CFD6" transform="translate(71.668082, 18.895949) rotate(-9.000000) translate(-71.668082, -18.895949) "></path>
                    <path d="M61.5788999,-1.89900413e-14 C62.2402614,8.49542057 65.5690403,17.8580981 68.3009294,27.1077524 C73.8751957,28.4987262 83.2258271,26.8592838 96.3515232,22.1894588 C99.606963,28.92321 101.111871,33.7238582 100.866248,36.5914034 C89.6059967,42.4723003 79.9551738,45.0939186 72.0044224,45.2664491 C72.2599957,49.9814212 71.6859388,54.4701512 69.756739,58.571591 C65.7913019,67.00203 42.571465,59.1945035 34.7642442,60.7312154 C29.875133,44.8559693 39.3283775,38.4043334 39.3359837,28.2464256 C39.3443133,17.1224341 48.2779052,-1.89900413e-14 49.5923043,-1.89900413e-14 L49.5923043,-1.89900413e-14 Z" id="Clothes" fill="#DDE3E9"></path>
                </g>
            </g>
        </g>
    </g>
</svg>