<svg width="40" height="40" viewBox="0 0 40 40" fill="none" xmlns="http://www.w3.org/2000/svg">
<rect width="40" height="40" rx="16" fill="#F3F4FD"/>
<path d="M29.016 11.4809V28.5849H23.992V26.9849C23.3711 27.6867 22.5996 28.239 21.7351 28.6006C20.8707 28.9622 19.9356 29.1236 19 29.0729C14.616 29.0729 11 25.1369 11 20.0409C11 14.9449 14.616 11.0089 19 11.0089C19.9356 10.9588 20.8704 11.1205 21.7348 11.482C22.5991 11.8436 23.3707 12.3956 23.992 13.0969V11.4969L29.016 11.4809ZM23.992 20.0329C24.0354 19.4892 23.963 18.9425 23.7796 18.4288C23.5962 17.9152 23.3058 17.4463 22.9278 17.0531C22.5497 16.66 22.0926 16.3515 21.5865 16.148C21.0804 15.9446 20.537 15.8508 19.992 15.8729C19.447 15.8508 18.9035 15.9446 18.3975 16.148C17.8914 16.3515 17.4343 16.66 17.0562 17.0531C16.6782 17.4463 16.3878 17.9152 16.2044 18.4288C16.0209 18.9425 15.9485 19.4892 15.992 20.0329C15.9488 20.5773 16.0212 21.1247 16.2045 21.6391C16.3878 22.1536 16.6779 22.6234 17.0556 23.0178C17.4334 23.4122 17.8903 23.7222 18.3964 23.9275C18.9025 24.1328 19.4462 24.2287 19.992 24.2089C22.312 24.1769 23.992 22.5769 23.992 20.0329Z" fill="#2027D2"/>
<path d="M20.008 22.1368C20.4257 22.1448 20.8364 22.0281 21.1876 21.8018C21.5388 21.5755 21.8147 21.2498 21.9801 20.8661C22.1455 20.4824 22.1929 20.0582 22.1163 19.6474C22.0397 19.2367 21.8425 18.8581 21.5499 18.5598C21.2574 18.2615 20.8826 18.0571 20.4734 17.9727C20.0642 17.8882 19.6391 17.9274 19.2523 18.0854C18.8655 18.2434 18.5346 18.513 18.3015 18.8599C18.0685 19.2067 17.9441 19.615 17.944 20.0328C17.9408 20.3066 17.9918 20.5784 18.0939 20.8325C18.196 21.0866 18.3473 21.318 18.539 21.5135C18.7308 21.709 18.9593 21.8647 19.2113 21.9716C19.4634 22.0786 19.7342 22.1347 20.008 22.1368Z" fill="#62E1FC"/>
</svg>
