<?xml version="1.0" encoding="UTF-8"?>
<svg width="77px" height="25px" viewBox="0 0 77 25" version="1.1" xmlns="http://www.w3.org/2000/svg" xmlns:xlink="http://www.w3.org/1999/xlink">
    <title>Artboard Copy 4</title>
    <g id="Artboard-Copy-4" stroke="none" stroke-width="1" fill="none" fill-rule="evenodd">
        <g id="Logos-09-Copy-14" fill-rule="nonzero">
            <path d="M17.3420455,7.59971591 L17.3420455,23.9991477 L12.525,23.9991477 L12.525,22.4650568 C11.3189408,23.8282365 9.55608728,24.5655839 7.73863636,24.4670455 C3.53522727,24.4670455 0.0681818182,20.6931818 0.0681818182,15.8071023 C0.0681818182,10.9210227 3.53522727,7.14715909 7.73863636,7.14715909 C9.55588971,7.04976369 11.3182657,7.78691135 12.525,9.14914773 L12.525,7.61505682 L17.3420455,7.59971591 Z M12.525,15.7994318 C12.6092663,14.7449624 12.2378164,13.7049042 11.5046245,12.9423846 C10.7714326,12.1798651 9.74673488,11.7679297 8.68977273,11.8107955 C7.63281057,11.7679297 6.60811284,12.1798651 5.87492093,12.9423846 C5.14172903,13.7049042 4.77027912,14.7449624 4.85454545,15.7994318 C4.77069897,16.8552072 5.14176482,17.8965308 5.87437052,18.6613712 C6.60697622,19.4262115 7.6313672,19.8417448 8.68977273,19.8034091 C10.9142045,19.7727273 12.525,18.2386364 12.525,15.7994318 Z" id="Shape" fill="#2026D2"></path>
            <path d="M26.9684659,12.3247159 L26.9684659,18.13125 C26.9684659,19.5426136 28.1573864,19.6653409 30.2744318,19.5426136 L30.2744318,23.9991477 C23.9846591,24.6741477 22.1590909,22.7258523 22.1590909,18.13125 L22.1590909,12.3247159 L19.5818182,12.3247159 L19.5818182,7.59971591 L22.1590909,7.59971591 L22.1590909,4.48551136 L26.9761364,3.00511364 L26.9761364,7.60738636 L30.2821023,7.60738636 L30.2821023,12.3323864 L26.9684659,12.3247159 Z" id="Path" fill="#2026D2"></path>
            <polygon id="Path" fill="#2026D2" points="33.0051136 0.0519886364 37.8221591 0.0519886364 37.8221591 24.0068182 33.0051136 24.0068182"></polygon>
            <path d="M57.8267045,7.59971591 L57.8267045,23.9991477 L53.0173295,23.9991477 L53.0173295,22.4650568 C51.8121824,23.8241677 50.0523944,24.5585896 48.2386364,24.459375 C44.0275568,24.459375 40.5681818,20.6855114 40.5681818,15.7994318 C40.5681818,10.9133523 44.0352273,7.13948864 48.2386364,7.13948864 C50.0536528,7.0421897 51.8136527,7.77952514 53.0173295,9.14147727 L53.0173295,7.60738636 L57.8267045,7.59971591 Z M53.0173295,15.7994318 C53.0173295,13.6812943 51.3002398,11.9642045 49.1821023,11.9642045 C47.0639647,11.9642045 45.346875,13.6812943 45.346875,15.7994318 C45.346875,18.2616477 46.95,19.8034091 49.1821023,19.8034091 C51.4142045,19.8034091 53.0173295,18.2386364 53.0173295,15.7994318 Z" id="Shape" fill="#2026D2"></path>
            <path d="M76.7727273,13.9355114 L76.7727273,24.0144886 L71.9556818,24.0144886 L71.9556818,14.6488636 C71.9556818,12.6392045 70.6977273,11.6650568 69.1559659,11.6650568 C67.3917614,11.6650568 66.1721591,12.7159091 66.1721591,15.0477273 L66.1721591,24.0068182 L61.3551136,24.0068182 L61.3551136,7.59971591 L66.1721591,7.59971591 L66.1721591,9.13380682 C67.0465909,7.921875 68.6497159,7.13948864 70.7744318,7.13948864 C74.0036932,7.13948864 76.7727273,9.50198864 76.7727273,13.9355114 Z" id="Path" fill="#2026D2"></path>
            <path d="M8.70511364,17.8167614 C9.52435756,17.8323391 10.2716378,17.3508323 10.5960019,16.5983756 C10.9203661,15.8459188 10.7573675,14.9720149 10.1835567,14.3870838 C9.60974588,13.8021526 8.73913125,13.622412 7.98058785,13.9322752 C7.22204445,14.2421384 6.72628445,14.9800398 6.72613636,15.7994318 C6.72000223,16.3296848 6.92530234,16.8405475 7.29665721,17.2190992 C7.66801208,17.5976509 8.17484063,17.8127177 8.70511364,17.8167614 L8.70511364,17.8167614 Z" id="Path" fill="#62E1FC"></path>
            <path d="M49.1897727,17.8167614 C50.0096354,17.8354703 50.7592335,17.356003 51.0860301,16.6038536 C51.4128268,15.8517041 51.2517783,14.9765758 50.678626,14.3900425 C50.1054737,13.8035093 49.2342944,13.6223111 48.4748047,13.9316657 C47.7153151,14.2410204 47.2186793,14.9793557 47.2184659,15.7994318 C47.2123276,16.3283683 47.4165781,16.8380756 47.7862774,17.216406 C48.1559766,17.5947364 48.6608355,17.8106935 49.1897727,17.8167614 L49.1897727,17.8167614 Z" id="Path" fill="#62E1FC"></path>
        </g>
    </g>
</svg>