<svg width="358" height="603" viewBox="0 0 358 603" fill="none" xmlns="http://www.w3.org/2000/svg">
<g clip-path="url(#clip0_39_698)">
<path d="M0 0H342C350.837 0 358 7.16344 358 16V603H0V0Z" fill="url(#paint0_linear_39_698)"/>
<g opacity="0.3">
<path opacity="0.8" d="M854 311C854 561.737 650.737 765 400 765C149.263 765 -54 561.737 -54 311C-54 60.2627 149.263 -143 400 -143C650.737 -143 854 60.2627 854 311Z" fill="url(#paint1_radial_39_698)"/>
<path opacity="0.8" d="M754.895 311C754.895 507.003 596.003 665.895 400 665.895C203.997 665.895 45.105 507.003 45.105 311C45.105 114.997 203.997 -43.8951 400 -43.8951C596.003 -43.8951 754.895 114.997 754.895 311Z" fill="url(#paint2_radial_39_698)"/>
<path opacity="0.6" d="M617.876 311.001C617.876 431.33 520.33 528.877 400 528.877C279.67 528.877 182.124 431.33 182.124 311.001C182.124 190.671 279.67 93.1248 400 93.1248C520.33 93.1248 617.876 190.671 617.876 311.001Z" fill="url(#paint3_linear_39_698)"/>
</g>
</g>
<defs>
<linearGradient id="paint0_linear_39_698" x1="0" y1="301.5" x2="358" y2="301.5" gradientUnits="userSpaceOnUse">
<stop offset="0.677085" stop-color="white"/>
<stop offset="1" stop-color="#DFE9F3"/>
</linearGradient>
<radialGradient id="paint1_radial_39_698" cx="0" cy="0" r="1" gradientUnits="userSpaceOnUse" gradientTransform="translate(400 311) scale(672.147)">
<stop stop-color="#DFE9F3"/>
<stop offset="0.395833" stop-color="#92C1F1"/>
<stop offset="0.619799" stop-color="white"/>
</radialGradient>
<radialGradient id="paint2_radial_39_698" cx="0" cy="0" r="1" gradientUnits="userSpaceOnUse" gradientTransform="translate(400 311) scale(525.422)">
<stop stop-color="#DFE9F3"/>
<stop offset="0.243414" stop-color="#92C1F1"/>
<stop offset="0.651043" stop-color="white"/>
</radialGradient>
<linearGradient id="paint3_linear_39_698" x1="182.124" y1="311.001" x2="617.876" y2="311.001" gradientUnits="userSpaceOnUse">
<stop stop-color="#DFE9F3"/>
<stop offset="1" stop-color="white"/>
</linearGradient>
<clipPath id="clip0_39_698">
<path d="M0 0H342C350.837 0 358 7.16344 358 16V603H0V0Z" fill="white"/>
</clipPath>
</defs>
</svg>
