<svg width="16" height="25" viewBox="0 0 16 25" fill="none" xmlns="http://www.w3.org/2000/svg">
<path d="M0.945759 14.0716L9.83023 0.61267C10.0254 0.316966 10.4239 0.236478 10.7186 0.433241C10.9417 0.582213 11.048 0.854644 10.9848 1.11536L9.05916 9.05977C9.02513 9.20019 9.1315 9.33542 9.27598 9.33542H14.5802C14.7298 9.33542 14.8767 9.37527 15.0058 9.45086C15.4186 9.69256 15.5474 10.2291 15.2895 10.6319L6.55872 24.2649C6.36595 24.566 5.98753 24.6891 5.65457 24.5591C5.30118 24.4211 5.10649 24.041 5.20108 23.6736L7.29963 15.5232C7.33598 15.382 7.22937 15.2444 7.08358 15.2444H1.57686C1.37949 15.2444 1.18994 15.1673 1.04869 15.0294C0.789166 14.7761 0.745978 14.3743 0.945759 14.0716Z" fill="#AEF1FF"/>
</svg>
