<svg width="48" height="48" viewBox="0 0 48 48" fill="none" xmlns="http://www.w3.org/2000/svg">
<rect width="48" height="48" rx="16" fill="#F3F4FD"/>
<circle cx="24" cy="24" r="11.25" stroke="#2026D2" stroke-width="1.5"/>
<path d="M29.255 23.4064L25.0949 19.2463C24.7668 18.9182 24.2346 18.9182 23.9065 19.2463C23.5784 19.5744 23.5784 20.1066 23.9065 20.4347L27.472 24.0002L23.9065 27.5657C23.5784 27.8938 23.5784 28.426 23.9065 28.7541C24.2346 29.0822 24.7668 29.0822 25.0949 28.7541L29.255 24.594C29.5831 24.2667 29.5831 23.7346 29.255 23.4064ZM24.2529 23.1545L20.9502 19.6736C20.6183 19.3242 20.0808 19.3242 19.7489 19.6736C19.417 20.0229 19.417 20.5896 19.7489 20.9394L22.4512 23.7874L19.7489 26.6355C19.417 26.9849 19.417 27.552 19.7489 27.9013C20.0808 28.2507 20.6183 28.2507 20.9502 27.9013L24.2529 24.4203C24.5848 24.071 24.5848 23.5043 24.2529 23.1545Z" fill="#2026D2"/>
</svg>
