<?xml version="1.0" encoding="UTF-8"?>
<svg width="177px" height="25px" viewBox="0 0 177 25" version="1.1" xmlns="http://www.w3.org/2000/svg" xmlns:xlink="http://www.w3.org/1999/xlink">
    <title>Artboard</title>
    <g id="Artboard" stroke="none" stroke-width="1" fill="none" fill-rule="evenodd" stroke-linecap="round" stroke-linejoin="round">
        <g id="venture-beat" transform="translate(0.000000, 2.000000)">
            <g id="A-link" transform="translate(1.000000, 0.000000)">
                <g id="A">
                    <g id="Group">
                        <path d="M21.021,0 L21.021,4.53059649 L20.1349726,4.53059649 C19.6919589,4.37887719 19.5432329,4.68231579 19.5432329,4.98252632 L15.2507466,18.8761404 L14.214411,22.0477193 C14.214411,22.1994386 13.9185411,22.3495439 13.7713973,22.3495439 L6.95689726,22.3495439 L6.80817123,21.897614 L1.62649315,4.98252632 C1.47776712,4.53059649 1.33062329,4.53059649 0.886027397,4.53059649 L0,4.53059649 L0,0 L9.47416438,0 L9.47416438,4.53059649 L7.55021918,4.53059649 L10.659226,17.065193 L10.8079521,17.065193 L14.2128288,4.53059649 L12.2888836,4.53059649 L12.2888836,0 L21.021,0 Z M35.9727123,6.0397193 L42.3378699,6.0397193 L42.4865959,8.30421053 C42.9296096,7.8522807 43.2270616,7.40035088 43.5229315,7.09691228 C45.2997329,5.58617544 47.3724041,5.28435088 49.5922192,6.0397193 C51.2218767,6.64336842 51.9607603,8.00238596 51.9607603,9.8165614 L51.9607603,17.8221754 L53.2929658,17.8221754 L53.2929658,22.3527719 L46.1873425,22.3527719 L46.1873425,12.234386 C46.1873425,11.3305263 45.8914726,10.8753684 45.3013151,10.7236491 C44.5608493,10.5719298 43.9691096,10.7236491 43.5245137,11.3272982 L43.2286438,11.7792281 L43.0799178,12.2311579 L43.0799178,17.8189474 L44.1162534,17.8189474 L44.1162534,22.3495439 L35.9742945,22.3495439 L35.9742945,17.8189474 L37.157774,17.8189474 L37.157774,10.5557895 L35.9742945,10.5557895 L35.9727123,6.0397193 Z M74.7569795,10.4185965 L73.7174795,10.4185965 L73.7174795,5.888 L80.6791233,5.888 L80.6791233,17.8318596 L82.0113288,17.8318596 L82.0113288,22.3624561 L75.4974452,22.3624561 L75.4974452,20.7 C75.2015753,21.0018246 75.0544315,21.3036491 74.7569795,21.4553684 C73.1273219,22.9661053 70.3157671,23.2679298 68.3918219,22.3592281 C66.9108904,21.6038596 66.1720068,20.3965614 66.1720068,18.7357193 L66.0232808,11.1852632 L66.0232808,10.581614 L64.6910753,10.581614 L64.6910753,6.03649123 L71.8109384,6.03649123 L71.8109384,15.7013333 C71.8109384,16.1532632 71.8109384,16.605193 71.9596644,16.9086316 C72.1083904,17.5122807 72.7001301,17.8124912 73.2918699,17.8124912 C73.8836096,17.8124912 74.3282055,17.5106667 74.6240753,16.9086316 C74.7728014,16.7569123 74.7728014,16.4567018 74.7728014,16.1532632 L74.7569795,10.4185965 Z M34.9379589,15.2526316 L25.0176164,15.2526316 C25.0176164,16.1564912 25.0176164,17.065193 25.4606301,17.8350877 C25.7565,18.4387368 26.4969658,18.7389474 27.0902877,18.7389474 C27.6836096,18.7389474 28.4224932,18.4371228 28.7199452,17.6817544 C28.8686712,17.3799298 28.8686712,17.0781053 29.0158151,16.6245614 L34.493363,16.6245614 C34.344637,18.4371228 33.6073356,19.9462456 32.1248219,21.0034386 C31.0884863,21.758807 29.9050068,22.2107368 28.7199452,22.3624561 C27.0902877,22.6642807 25.3150685,22.5141754 23.6885753,22.0606316 C21.4687603,21.3052632 19.9862466,19.7961404 19.396089,17.6817544 C18.6558112,15.3245507 18.6558112,12.7903265 19.396089,10.4331228 C20.2821164,7.56336842 22.3547877,5.90252632 25.3166507,5.44898246 C26.6488562,5.29726316 27.9810616,5.29726316 29.3132671,5.75080702 C32.2719658,6.65466667 33.9016233,8.6205614 34.4949452,11.7905263 C34.7908151,12.9978246 34.7908151,14.0550175 34.9379589,15.2639298 L34.9379589,15.2526316 Z M25.1679247,12.0810526 L29.0173973,12.0810526 C29.0173973,11.177193 29.0173973,10.4185965 28.1313699,9.98280702 C27.3909041,9.53087719 26.6504384,9.53087719 26.0745205,9.98280702 C25.1884932,10.4347368 25.1884932,11.1901053 25.1884932,12.0810526 L25.1679247,12.0810526 Z M112.061897,15.2526316 L102.141555,15.2526316 C102.141555,16.1564912 102.141555,17.065193 102.584568,17.8350877 C103.027582,18.6049825 103.620904,18.7389474 104.36137,18.7389474 C105.057651,18.7333687 105.689754,18.3229122 105.989445,17.6817544 L106.285315,16.7778947 L111.762863,16.7778947 C111.466993,20.0995789 109.098452,22.3656842 105.842301,22.6691228 C104.212644,22.8208421 102.733295,22.8208421 101.253945,22.217193 C99.0341301,21.4618246 97.5516164,19.9527018 96.8127329,17.6865965 C96.0721911,15.3812704 96.0721911,12.8950104 96.8127329,10.5896842 C97.6987603,7.5714386 99.9217397,6.05908772 102.882021,5.60554386 C104.214226,5.45382456 105.695158,5.45382456 107.027363,5.90736842 C109.8405,6.81122807 111.319849,8.77712281 111.913171,11.4951579 C112.061897,12.8541754 112.061897,14.077614 112.061897,15.272 L112.061897,15.2526316 Z M102.442171,12.0810526 L106.291644,12.0810526 C106.291644,10.4185965 105.551178,9.49859649 104.234795,9.66484211 C103.051315,9.8165614 102.310849,10.7220351 102.457993,12.0810526 L102.442171,12.0810526 Z M54.0350137,5.888 L55.8118151,5.888 L55.8118151,2.71642105 C55.8118151,2.11277193 55.9605411,1.96105263 56.5522808,1.8125614 L61.140637,0.755368421 L61.140637,5.888 L63.6721438,5.888 L63.6721438,10.4185965 L61.140637,10.4185965 L61.140637,16.7617544 C61.289363,17.8189474 62.0266644,18.2724912 62.9174384,18.1207719 C63.0661644,18.1207719 63.2133082,18.1207719 63.5091781,17.9690526 L63.5091781,20.838807 C63.5091781,22.1978246 63.5091781,22.1978246 62.1769726,22.3495439 C60.8447671,22.5012632 59.5125616,22.6513684 58.0316301,22.3495439 C56.1076849,21.897614 55.2184932,20.6870877 55.2184932,18.7260351 L55.2184932,10.4202105 L53.8862877,10.4202105 C54.0350137,9.06119298 54.0350137,7.55045614 54.0350137,5.88961404 L54.0350137,5.888 Z M83.2106301,22.3479298 L83.2106301,17.8189474 L84.5428356,17.8189474 L84.5428356,10.5557895 L83.2106301,10.5557895 L83.2106301,6.03649123 L89.4286438,6.03649123 C89.4286438,6.79185965 89.5773699,7.69894737 89.5773699,8.61894737 C89.7260959,8.46722807 89.7260959,8.31712281 89.7260959,8.16701754 C90.1691096,6.808 91.2070274,6.06877193 92.5392329,5.90252632 L94.5960822,5.90252632 C94.7448082,5.90252632 94.8919521,6.05424561 94.8919521,6.20435088 L94.8919521,11.1884912 C94.1514863,11.1884912 93.2622945,11.0367719 92.523411,11.1884912 C90.8937534,11.4903158 90.1548699,12.3957895 89.9919041,14.0582456 L89.9919041,17.6817544 L91.7687055,17.6817544 L91.7687055,22.2123509 L83.1821507,22.3640702 L83.2106301,22.3479298 Z" id="Shape" fill="#000000"></path>
                        <path d="M124.844425,0.161403509 C125.730452,0.313122807 126.621226,0.313122807 127.375932,0.613333333 C130.780808,1.51719298 132.55761,5.74596491 130.780808,8.91915789 C130.337795,9.67452632 129.744473,10.1264561 129.004007,10.581614 C128.708137,10.7333333 128.412267,10.8834386 127.967671,11.1852632 C128.116397,11.3369825 128.263541,11.3369825 128.410685,11.3369825 C130.779226,12.0923509 131.815562,13.9194386 131.962705,16.1694035 C132.258575,19.4910877 130.185904,21.9072982 126.931336,22.2091228 C125.895,22.3608421 124.874486,22.3608421 123.972637,22.3608421 L113.758007,22.3608421 L113.758007,17.8302456 L115.681952,17.8302456 L115.681952,4.54189474 L113.758007,4.54189474 L113.758007,0.0112982456 L124.860247,0.163017544 L124.844425,0.161403509 Z M121.588274,13.4497544 L121.588274,17.8286316 C121.588274,17.9803509 121.737,18.1304561 121.884144,18.1304561 L124.415651,18.1304561 C125.00739,18.1304561 125.59913,17.8286316 125.896582,17.2265965 C126.637048,15.8675789 125.896582,14.0550175 124.415651,13.753193 C123.529623,13.4513684 122.638849,13.4513684 121.602514,13.4513684 L121.588274,13.4497544 Z M121.588274,9.22098246 C122.474301,9.22098246 123.217932,9.22098246 124.119781,9.06926316 C125.156116,8.91754386 125.749438,8.01207018 125.749438,6.97101754 C125.749438,5.92996491 125.157699,5.00835088 124.268507,4.87277193 C123.379315,4.73719298 122.491705,4.72105263 121.604096,4.72105263 L121.588274,9.22098246 Z M175.767267,10.7317193 L173.547452,10.7317193 C173.398726,10.7317193 173.251582,10.8834386 173.251582,11.0335439 L173.251582,16.7536842 C173.251582,17.9609825 173.992048,18.5662456 175.308432,18.2644211 L175.604301,18.2644211 L175.604301,21.8879298 C175.604301,22.1897544 175.604301,22.3398596 175.308432,22.3398596 C173.678774,22.6416842 172.052281,22.7917895 170.277062,22.4915789 C168.353116,22.0396491 167.463925,20.9808421 167.463925,19.0181754 L167.463925,10.5606316 L166.872185,10.5606316 C165.986158,10.5606316 166.131719,10.7123509 166.131719,9.80526316 L166.131719,6.02842105 L167.908521,6.02842105 L167.908521,3.01017544 C167.908521,1.95298246 167.759795,2.10631579 168.794548,1.95298246 L173.23576,0.895789474 L173.23576,6.02842105 L175.900171,6.02842105 C175.751445,7.69087719 175.751445,9.2 175.751445,10.7091228 L175.767267,10.7317193 Z M158.29987,12.3941754 L158.29987,10.8834386 C158.29987,9.97957895 157.70813,9.37270175 156.967664,9.37270175 C156.227199,9.37270175 155.486733,9.97635088 155.486733,10.7317193 L155.486733,11.3353684 L150.157911,11.3353684 C150.009185,9.23712281 151.043938,7.40842105 152.971048,6.50294737 C155.784185,5.29564912 158.746048,5.29564912 161.557603,6.65466667 C163.334404,7.55852632 164.222014,8.91915789 164.222014,10.8834386 L164.222014,17.662386 L165.554219,17.662386 L165.554219,22.1929825 L158.909014,22.1929825 C158.909014,21.5893333 158.760288,21.1357895 158.760288,20.3804211 C158.611562,20.5321404 158.464418,20.6822456 158.464418,20.8323509 C156.687616,22.9305965 153.433048,22.9305965 151.654664,22.0396491 C150.322459,21.2842807 149.730719,19.9414035 149.597815,18.4161404 C149.449089,15.0944561 151.078747,12.9800702 154.483623,12.3764211 L158.035644,12.0745965 C157.886918,12.3764211 158.035644,12.3764211 158.331514,12.3764211 L158.29987,12.3941754 Z M158.29987,15.2639298 L156.967664,15.2639298 C155.635459,15.4156491 155.043719,16.4712281 155.190863,17.6801404 C155.339589,18.7373333 156.227199,19.3425965 157.247712,18.8874386 C157.839452,18.7357193 158.13374,18.2837895 158.284048,17.6801404 L158.29987,15.2639298 Z M148.825705,15.4156491 L138.903781,15.4156491 C138.903781,16.4728421 138.903781,17.3783158 139.495521,18.1336842 C139.938534,18.7373333 140.531856,18.8890526 141.272322,18.8890526 C142.012788,18.8890526 142.455801,18.4371228 142.753253,17.8318596 L143.049123,16.928 L148.526671,16.928 C148.377945,18.7405614 147.640644,20.2496842 146.15813,21.3068772 C144.381329,22.6658947 142.455801,22.9693333 140.38313,22.817614 C139.497103,22.817614 138.753473,22.6658947 137.851623,22.3656842 C135.631808,21.7620351 134.299603,20.2674386 133.559137,18.1369123 C132.818671,15.5544561 132.67311,13.0042807 133.707863,10.4347368 C134.744199,7.71670175 136.81687,6.20596491 139.628425,5.90414035 C140.96063,5.75242105 142.441562,5.90414035 143.773767,6.20596491 C146.586904,7.10982456 148.066253,9.22421053 148.659575,12.097193 L148.808301,15.4188772 L148.825705,15.4156491 Z M143.050705,12.3974035 C143.050705,11.4935439 142.901979,10.5848421 142.164678,10.1329123 C141.427377,9.68098246 140.683747,9.68098246 139.944863,10.2846316 C139.353123,10.7365614 139.204397,11.4919298 139.204397,12.3828772 L143.050705,12.3974035 Z" id="Shape" fill="#FF0113"></path>
                    </g>
                </g>
            </g>
            <g id="A">
                <g id="Group">
                    <path d="M21.021,0 L21.021,4.53059649 L20.1349726,4.53059649 C19.6919589,4.37887719 19.5432329,4.68231579 19.5432329,4.98252632 L15.2507466,18.8761404 L14.214411,22.0477193 C14.214411,22.1994386 13.9185411,22.3495439 13.7713973,22.3495439 L6.95689726,22.3495439 L6.80817123,21.897614 L1.62649315,4.98252632 C1.47776712,4.53059649 1.33062329,4.53059649 0.886027397,4.53059649 L0,4.53059649 L0,0 L9.47416438,0 L9.47416438,4.53059649 L7.55021918,4.53059649 L10.659226,17.065193 L10.8079521,17.065193 L14.2128288,4.53059649 L12.2888836,4.53059649 L12.2888836,0 L21.021,0 Z M35.9727123,6.0397193 L42.3378699,6.0397193 L42.4865959,8.30421053 C42.9296096,7.8522807 43.2270616,7.40035088 43.5229315,7.09691228 C45.2997329,5.58617544 47.3724041,5.28435088 49.5922192,6.0397193 C51.2218767,6.64336842 51.9607603,8.00238596 51.9607603,9.8165614 L51.9607603,17.8221754 L53.2929658,17.8221754 L53.2929658,22.3527719 L46.1873425,22.3527719 L46.1873425,12.234386 C46.1873425,11.3305263 45.8914726,10.8753684 45.3013151,10.7236491 C44.5608493,10.5719298 43.9691096,10.7236491 43.5245137,11.3272982 L43.2286438,11.7792281 L43.0799178,12.2311579 L43.0799178,17.8189474 L44.1162534,17.8189474 L44.1162534,22.3495439 L35.9742945,22.3495439 L35.9742945,17.8189474 L37.157774,17.8189474 L37.157774,10.5557895 L35.9742945,10.5557895 L35.9727123,6.0397193 Z M74.7569795,10.4185965 L73.7174795,10.4185965 L73.7174795,5.888 L80.6791233,5.888 L80.6791233,17.8318596 L82.0113288,17.8318596 L82.0113288,22.3624561 L75.4974452,22.3624561 L75.4974452,20.7 C75.2015753,21.0018246 75.0544315,21.3036491 74.7569795,21.4553684 C73.1273219,22.9661053 70.3157671,23.2679298 68.3918219,22.3592281 C66.9108904,21.6038596 66.1720068,20.3965614 66.1720068,18.7357193 L66.0232808,11.1852632 L66.0232808,10.581614 L64.6910753,10.581614 L64.6910753,6.03649123 L71.8109384,6.03649123 L71.8109384,15.7013333 C71.8109384,16.1532632 71.8109384,16.605193 71.9596644,16.9086316 C72.1083904,17.5122807 72.7001301,17.8124912 73.2918699,17.8124912 C73.8836096,17.8124912 74.3282055,17.5106667 74.6240753,16.9086316 C74.7728014,16.7569123 74.7728014,16.4567018 74.7728014,16.1532632 L74.7569795,10.4185965 Z M34.9379589,15.2526316 L25.0176164,15.2526316 C25.0176164,16.1564912 25.0176164,17.065193 25.4606301,17.8350877 C25.7565,18.4387368 26.4969658,18.7389474 27.0902877,18.7389474 C27.6836096,18.7389474 28.4224932,18.4371228 28.7199452,17.6817544 C28.8686712,17.3799298 28.8686712,17.0781053 29.0158151,16.6245614 L34.493363,16.6245614 C34.344637,18.4371228 33.6073356,19.9462456 32.1248219,21.0034386 C31.0884863,21.758807 29.9050068,22.2107368 28.7199452,22.3624561 C27.0902877,22.6642807 25.3150685,22.5141754 23.6885753,22.0606316 C21.4687603,21.3052632 19.9862466,19.7961404 19.396089,17.6817544 C18.6558112,15.3245507 18.6558112,12.7903265 19.396089,10.4331228 C20.2821164,7.56336842 22.3547877,5.90252632 25.3166507,5.44898246 C26.6488562,5.29726316 27.9810616,5.29726316 29.3132671,5.75080702 C32.2719658,6.65466667 33.9016233,8.6205614 34.4949452,11.7905263 C34.7908151,12.9978246 34.7908151,14.0550175 34.9379589,15.2639298 L34.9379589,15.2526316 Z M25.1679247,12.0810526 L29.0173973,12.0810526 C29.0173973,11.177193 29.0173973,10.4185965 28.1313699,9.98280702 C27.3909041,9.53087719 26.6504384,9.53087719 26.0745205,9.98280702 C25.1884932,10.4347368 25.1884932,11.1901053 25.1884932,12.0810526 L25.1679247,12.0810526 Z M112.061897,15.2526316 L102.141555,15.2526316 C102.141555,16.1564912 102.141555,17.065193 102.584568,17.8350877 C103.027582,18.6049825 103.620904,18.7389474 104.36137,18.7389474 C105.057651,18.7333687 105.689754,18.3229122 105.989445,17.6817544 L106.285315,16.7778947 L111.762863,16.7778947 C111.466993,20.0995789 109.098452,22.3656842 105.842301,22.6691228 C104.212644,22.8208421 102.733295,22.8208421 101.253945,22.217193 C99.0341301,21.4618246 97.5516164,19.9527018 96.8127329,17.6865965 C96.0721911,15.3812704 96.0721911,12.8950104 96.8127329,10.5896842 C97.6987603,7.5714386 99.9217397,6.05908772 102.882021,5.60554386 C104.214226,5.45382456 105.695158,5.45382456 107.027363,5.90736842 C109.8405,6.81122807 111.319849,8.77712281 111.913171,11.4951579 C112.061897,12.8541754 112.061897,14.077614 112.061897,15.272 L112.061897,15.2526316 Z M102.442171,12.0810526 L106.291644,12.0810526 C106.291644,10.4185965 105.551178,9.49859649 104.234795,9.66484211 C103.051315,9.8165614 102.310849,10.7220351 102.457993,12.0810526 L102.442171,12.0810526 Z M54.0350137,5.888 L55.8118151,5.888 L55.8118151,2.71642105 C55.8118151,2.11277193 55.9605411,1.96105263 56.5522808,1.8125614 L61.140637,0.755368421 L61.140637,5.888 L63.6721438,5.888 L63.6721438,10.4185965 L61.140637,10.4185965 L61.140637,16.7617544 C61.289363,17.8189474 62.0266644,18.2724912 62.9174384,18.1207719 C63.0661644,18.1207719 63.2133082,18.1207719 63.5091781,17.9690526 L63.5091781,20.838807 C63.5091781,22.1978246 63.5091781,22.1978246 62.1769726,22.3495439 C60.8447671,22.5012632 59.5125616,22.6513684 58.0316301,22.3495439 C56.1076849,21.897614 55.2184932,20.6870877 55.2184932,18.7260351 L55.2184932,10.4202105 L53.8862877,10.4202105 C54.0350137,9.06119298 54.0350137,7.55045614 54.0350137,5.88961404 L54.0350137,5.888 Z M83.2106301,22.3479298 L83.2106301,17.8189474 L84.5428356,17.8189474 L84.5428356,10.5557895 L83.2106301,10.5557895 L83.2106301,6.03649123 L89.4286438,6.03649123 C89.4286438,6.79185965 89.5773699,7.69894737 89.5773699,8.61894737 C89.7260959,8.46722807 89.7260959,8.31712281 89.7260959,8.16701754 C90.1691096,6.808 91.2070274,6.06877193 92.5392329,5.90252632 L94.5960822,5.90252632 C94.7448082,5.90252632 94.8919521,6.05424561 94.8919521,6.20435088 L94.8919521,11.1884912 C94.1514863,11.1884912 93.2622945,11.0367719 92.523411,11.1884912 C90.8937534,11.4903158 90.1548699,12.3957895 89.9919041,14.0582456 L89.9919041,17.6817544 L91.7687055,17.6817544 L91.7687055,22.2123509 L83.1821507,22.3640702 L83.2106301,22.3479298 Z" id="Shape" fill="#000000"></path>
                    <path d="M124.844425,0.161403509 C125.730452,0.313122807 126.621226,0.313122807 127.375932,0.613333333 C130.780808,1.51719298 132.55761,5.74596491 130.780808,8.91915789 C130.337795,9.67452632 129.744473,10.1264561 129.004007,10.581614 C128.708137,10.7333333 128.412267,10.8834386 127.967671,11.1852632 C128.116397,11.3369825 128.263541,11.3369825 128.410685,11.3369825 C130.779226,12.0923509 131.815562,13.9194386 131.962705,16.1694035 C132.258575,19.4910877 130.185904,21.9072982 126.931336,22.2091228 C125.895,22.3608421 124.874486,22.3608421 123.972637,22.3608421 L113.758007,22.3608421 L113.758007,17.8302456 L115.681952,17.8302456 L115.681952,4.54189474 L113.758007,4.54189474 L113.758007,0.0112982456 L124.860247,0.163017544 L124.844425,0.161403509 Z M121.588274,13.4497544 L121.588274,17.8286316 C121.588274,17.9803509 121.737,18.1304561 121.884144,18.1304561 L124.415651,18.1304561 C125.00739,18.1304561 125.59913,17.8286316 125.896582,17.2265965 C126.637048,15.8675789 125.896582,14.0550175 124.415651,13.753193 C123.529623,13.4513684 122.638849,13.4513684 121.602514,13.4513684 L121.588274,13.4497544 Z M121.588274,9.22098246 C122.474301,9.22098246 123.217932,9.22098246 124.119781,9.06926316 C125.156116,8.91754386 125.749438,8.01207018 125.749438,6.97101754 C125.749438,5.92996491 125.157699,5.00835088 124.268507,4.87277193 C123.379315,4.73719298 122.491705,4.72105263 121.604096,4.72105263 L121.588274,9.22098246 Z M175.767267,10.7317193 L173.547452,10.7317193 C173.398726,10.7317193 173.251582,10.8834386 173.251582,11.0335439 L173.251582,16.7536842 C173.251582,17.9609825 173.992048,18.5662456 175.308432,18.2644211 L175.604301,18.2644211 L175.604301,21.8879298 C175.604301,22.1897544 175.604301,22.3398596 175.308432,22.3398596 C173.678774,22.6416842 172.052281,22.7917895 170.277062,22.4915789 C168.353116,22.0396491 167.463925,20.9808421 167.463925,19.0181754 L167.463925,10.5606316 L166.872185,10.5606316 C165.986158,10.5606316 166.131719,10.7123509 166.131719,9.80526316 L166.131719,6.02842105 L167.908521,6.02842105 L167.908521,3.01017544 C167.908521,1.95298246 167.759795,2.10631579 168.794548,1.95298246 L173.23576,0.895789474 L173.23576,6.02842105 L175.900171,6.02842105 C175.751445,7.69087719 175.751445,9.2 175.751445,10.7091228 L175.767267,10.7317193 Z M158.29987,12.3941754 L158.29987,10.8834386 C158.29987,9.97957895 157.70813,9.37270175 156.967664,9.37270175 C156.227199,9.37270175 155.486733,9.97635088 155.486733,10.7317193 L155.486733,11.3353684 L150.157911,11.3353684 C150.009185,9.23712281 151.043938,7.40842105 152.971048,6.50294737 C155.784185,5.29564912 158.746048,5.29564912 161.557603,6.65466667 C163.334404,7.55852632 164.222014,8.91915789 164.222014,10.8834386 L164.222014,17.662386 L165.554219,17.662386 L165.554219,22.1929825 L158.909014,22.1929825 C158.909014,21.5893333 158.760288,21.1357895 158.760288,20.3804211 C158.611562,20.5321404 158.464418,20.6822456 158.464418,20.8323509 C156.687616,22.9305965 153.433048,22.9305965 151.654664,22.0396491 C150.322459,21.2842807 149.730719,19.9414035 149.597815,18.4161404 C149.449089,15.0944561 151.078747,12.9800702 154.483623,12.3764211 L158.035644,12.0745965 C157.886918,12.3764211 158.035644,12.3764211 158.331514,12.3764211 L158.29987,12.3941754 Z M158.29987,15.2639298 L156.967664,15.2639298 C155.635459,15.4156491 155.043719,16.4712281 155.190863,17.6801404 C155.339589,18.7373333 156.227199,19.3425965 157.247712,18.8874386 C157.839452,18.7357193 158.13374,18.2837895 158.284048,17.6801404 L158.29987,15.2639298 Z M148.825705,15.4156491 L138.903781,15.4156491 C138.903781,16.4728421 138.903781,17.3783158 139.495521,18.1336842 C139.938534,18.7373333 140.531856,18.8890526 141.272322,18.8890526 C142.012788,18.8890526 142.455801,18.4371228 142.753253,17.8318596 L143.049123,16.928 L148.526671,16.928 C148.377945,18.7405614 147.640644,20.2496842 146.15813,21.3068772 C144.381329,22.6658947 142.455801,22.9693333 140.38313,22.817614 C139.497103,22.817614 138.753473,22.6658947 137.851623,22.3656842 C135.631808,21.7620351 134.299603,20.2674386 133.559137,18.1369123 C132.818671,15.5544561 132.67311,13.0042807 133.707863,10.4347368 C134.744199,7.71670175 136.81687,6.20596491 139.628425,5.90414035 C140.96063,5.75242105 142.441562,5.90414035 143.773767,6.20596491 C146.586904,7.10982456 148.066253,9.22421053 148.659575,12.097193 L148.808301,15.4188772 L148.825705,15.4156491 Z M143.050705,12.3974035 C143.050705,11.4935439 142.901979,10.5848421 142.164678,10.1329123 C141.427377,9.68098246 140.683747,9.68098246 139.944863,10.2846316 C139.353123,10.7365614 139.204397,11.4919298 139.204397,12.3828772 L143.050705,12.3974035 Z" id="Shape" fill="#FF0113"></path>
                </g>
            </g>
        </g>
    </g>
</svg>