<svg width="40" height="40" viewBox="0 0 40 40" fill="none" xmlns="http://www.w3.org/2000/svg">
<rect width="40" height="40" rx="16" fill="#F3F4FD"/>
<path d="M23 16H17M23 16V14C23 13.4696 22.7893 12.9609 22.4142 12.5858C22.0391 12.2107 21.5304 12 21 12H19C18.4696 12 17.9609 12.2107 17.5858 12.5858C17.2107 12.9609 17 13.4696 17 14V16H23ZM23 16H27C27.5304 16 28.0391 16.2107 28.4142 16.5858C28.7893 16.9609 29 17.4696 29 18V26C29 26.5304 28.7893 27.0391 28.4142 27.4142C28.0391 27.7893 27.5304 28 27 28H13C12.4696 28 11.9609 27.7893 11.5858 27.4142C11.2107 27.0391 11 26.5304 11 26V18C11 17.4696 11.2107 16.9609 11.5858 16.5858C11.9609 16.2107 12.4696 16 13 16H17H23Z" stroke="#2026D2" stroke-width="1.5" stroke-linecap="round" stroke-linejoin="round"/>
</svg>
