<svg width="48" height="48" viewBox="0 0 48 48" fill="none" xmlns="http://www.w3.org/2000/svg">
<rect width="48" height="48" rx="16" fill="#F3F4FD"/>
<g clip-path="url(#clip0_157_11866)">
<path d="M34.0317 25.9039C33.6994 25.7028 33.2672 25.8094 33.0662 26.1416C32.8652 26.4738 32.9716 26.9062 33.3039 27.1071C34.1357 27.6102 34.5937 28.1579 34.5937 28.6493C34.5937 29.1692 34.0879 29.745 33.1697 30.2704C32.1066 30.8788 30.5891 31.3694 28.7812 31.6893C28.3988 31.7569 28.1436 32.1218 28.2113 32.5042C28.2716 32.8451 28.5682 33.0849 28.9029 33.0849C28.9435 33.0849 28.9848 33.0813 29.0262 33.074C33.3929 32.3014 35.9999 30.6473 35.9999 28.6493C35.9999 27.3642 34.9296 26.447 34.0317 25.9039Z" fill="#2026D2"/>
<path d="M24.4219 32.2286L22.5469 30.8223C22.2362 30.5894 21.7955 30.6523 21.5625 30.963C21.3295 31.2736 21.3925 31.7143 21.7031 31.9473L21.7827 32.0071C19.6958 31.8522 17.7835 31.4786 16.254 30.9178C14.4708 30.2641 13.4062 29.416 13.4062 28.6493C13.4062 28.1579 13.8643 27.6102 14.6962 27.1071C15.0284 26.9061 15.1348 26.4738 14.9339 26.1415C14.7328 25.8093 14.3006 25.7028 13.9683 25.9038C13.0704 26.4469 12 27.3641 12 28.6493C12 29.611 12.6147 30.3458 13.1303 30.7928C13.764 31.342 14.652 31.8283 15.7699 32.2381C17.4907 32.869 19.6445 33.2792 21.9767 33.4297L21.7031 33.6348C21.3925 33.8679 21.3295 34.3086 21.5625 34.6192C21.7006 34.8034 21.9118 34.9005 22.1256 34.9005C22.2724 34.9005 22.4204 34.8547 22.5469 34.7598L24.4219 33.3536C24.5989 33.2208 24.7031 33.0124 24.7031 32.7911C24.7031 32.5698 24.5989 32.3614 24.4219 32.2286Z" fill="#2026D2"/>
<path d="M17.1776 26.4865L23.5946 30.0846C23.7205 30.1553 23.8602 30.1906 24 30.1906C24.1398 30.1906 24.2796 30.1553 24.4055 30.0846L30.8224 26.4865C31.084 26.3398 31.246 26.0633 31.246 25.7634V17.4272C31.246 17.1273 31.084 16.8507 30.8224 16.7041L24.4055 13.106C24.1536 12.9647 23.8464 12.9647 23.5946 13.106L17.1776 16.7041C16.916 16.8508 16.754 17.1273 16.754 17.4272V25.7634C16.754 26.0633 16.916 26.3398 17.1776 26.4865ZM18.4122 18.8426L23.171 21.511V27.9461L18.4122 25.2778V18.8426ZM24.8291 27.9461V21.511L29.5879 18.8426V25.2778L24.8291 27.9461ZM24 14.7796L28.7218 17.4272L24 20.0748L19.2783 17.4272L24 14.7796Z" fill="#2026D2"/>
</g>
<defs>
<clipPath id="clip0_157_11866">
<rect width="24" height="24" fill="white" transform="translate(12 12)"/>
</clipPath>
</defs>
</svg>
