<svg width="20" height="33" viewBox="0 0 20 33" fill="none" xmlns="http://www.w3.org/2000/svg">
<path d="M0.848705 18.3162L12.4238 0.781177C12.6781 0.395919 13.1973 0.291056 13.5812 0.547408C13.8719 0.741496 14.0104 1.09643 13.9281 1.4361L11.4192 11.7865C11.3749 11.9694 11.5135 12.1456 11.7017 12.1456H18.6124C18.8073 12.1456 18.9986 12.1975 19.1668 12.296C19.7046 12.6109 19.8725 13.3099 19.5364 13.8347L8.16154 31.5965C7.9104 31.9887 7.41737 32.149 6.98357 31.9797C6.52315 31.8 6.2695 31.3047 6.39274 30.826L9.12684 20.2073C9.1742 20.0233 9.0353 19.8442 8.84536 19.8442H1.67093C1.41379 19.8442 1.16684 19.7436 0.982813 19.564C0.644688 19.234 0.58842 18.7105 0.848705 18.3162Z" fill="#1F1F9B"/>
</svg>
